<svg width="193" height="77" viewBox="0 0 193 77" fill="none" xmlns="http://www.w3.org/2000/svg">
<path fill-rule="evenodd" clip-rule="evenodd" d="M18 9C18 13.1452 15.1976 16.636 11.384 17.6809V48.576C11.384 52.288 12.184 55.712 13.784 58.848C15.384 61.92 17.688 64.384 20.696 66.24C23.704 68.096 27.288 69.024 31.448 69.024C35.544 69.024 39.064 68.096 42.008 66.24C45.016 64.384 47.352 61.92 49.016 58.848C50.68 55.712 51.512 52.288 51.512 48.576V13.545C48.8743 12.5417 47 9.98975 47 7C47 3.134 50.134 0 54 0C57.866 0 61 3.134 61 7C61 10.127 58.9496 12.7751 56.12 13.6732V48.576C56.12 52.288 56.92 55.712 58.52 58.848C60.184 61.92 62.52 64.384 65.528 66.24C68.536 68.096 72.088 69.024 76.184 69.024C80.28 69.024 83.832 68.096 86.84 66.24C89.848 64.384 92.152 61.92 93.752 58.848C95.352 55.712 96.152 52.288 96.152 48.576V9.343C94.8101 10.6546 94 11.2288 94 9C94 4.02943 98.0294 0 103 0C107.971 0 112 4.02943 112 9C112 11.1364 111.256 10.6974 110.012 9.50206V34.464H110.3C111.452 32.032 113.02 29.888 115.004 28.032C117.052 26.112 119.388 24.608 122.012 23.52C124.7 22.432 127.484 21.888 130.364 21.888C134.652 21.888 138.62 22.912 142.268 24.96C145.916 26.944 148.86 29.824 151.1 33.6C152.509 35.9751 153.475 38.6667 153.998 41.6748C154.907 41.2421 155.925 41 157 41C157.789 41 158.548 41.1306 159.255 41.3713C159.829 39.1568 160.729 37.0784 161.956 35.136C164.26 31.424 167.396 28.48 171.364 26.304C173.761 24.9896 176.356 24.0722 179.15 23.5517C179.817 20.3807 182.631 18 186 18C189.866 18 193 21.134 193 25C193 28.866 189.866 32 186 32C183.052 32 180.53 30.1776 179.498 27.598C177.484 28.0541 175.573 28.8067 173.764 29.856C170.564 31.648 167.972 34.08 165.988 37.152C164.519 39.5025 163.612 42.0778 163.267 44.8779C163.736 45.8178 164 46.8781 164 48C164 49.0352 163.775 50.0179 163.372 50.902C163.777 53.4174 164.649 55.746 165.988 57.888C167.972 60.96 170.564 63.424 173.764 65.28C175.567 66.2895 177.471 67.0147 179.477 67.4555C180.495 64.8476 183.032 63 186 63C189.866 63 193 66.134 193 70C193 73.866 189.866 77 186 77C182.645 77 179.842 74.6401 179.159 71.4899C176.362 70.9698 173.763 70.0518 171.364 68.736C167.396 66.56 164.26 63.648 161.956 60C160.887 58.2775 160.066 56.4585 159.493 54.5431C158.718 54.8383 157.878 55 157 55C155.838 55 154.742 54.7168 153.777 54.2156C153.45 55.7476 153.006 57.1957 152.444 58.56C151.1 61.76 149.276 64.448 146.972 66.624C144.668 68.8 142.044 70.464 139.1 71.616C136.156 72.704 133.084 73.248 129.884 73.248C125.66 73.248 121.692 72.288 117.98 70.368C114.268 68.448 111.26 65.6 108.956 61.824C106.652 58.048 105.5 53.408 105.5 47.904V5.69788C104.706 5.27322 103.867 5 103 5C102.261 5 101.543 5.1982 100.856 5.51935V48.192C100.856 53.312 99.8 57.76 97.688 61.536C95.64 65.312 92.76 68.224 89.048 70.272C85.336 72.256 81.048 73.248 76.184 73.248C72.92 73.248 69.752 72.704 66.68 71.616C63.672 70.528 61.048 68.832 58.808 66.528C56.568 64.224 54.904 61.28 53.816 57.696C52.792 61.28 51.128 64.224 48.824 66.528C46.52 68.768 43.832 70.464 40.76 71.616C37.752 72.704 34.648 73.248 31.448 73.248C26.584 73.248 22.264 72.256 18.488 70.272C14.776 68.224 11.864 65.312 9.75201 61.536C7.70398 57.76 6.67999 53.312 6.67999 48.192V17.6981C2.8338 16.6749 0 13.1684 0 9C0 4.02943 4.02942 0 9 0C13.9706 0 18 4.02943 18 9ZM139.484 66.72C136.476 68.384 133.244 69.216 129.788 69.216C126.396 69.216 123.196 68.416 120.188 66.816C117.18 65.152 114.748 62.72 112.892 59.52C111.036 56.32 110.108 52.384 110.108 47.712C110.108 42.976 111.036 39.008 112.892 35.808C114.812 32.544 117.276 30.08 120.284 28.416C123.356 26.752 126.588 25.92 129.98 25.92C133.436 25.92 136.668 26.784 139.676 28.512C142.684 30.24 145.116 32.736 146.972 36C148.892 39.2 149.852 43.04 149.852 47.52C149.852 52.192 148.892 56.16 146.972 59.424C145.052 62.624 142.556 65.056 139.484 66.72ZM22 58C22 59.1046 21.1046 60 20 60C18.8954 60 18 59.1046 18 58C18 56.8954 18.8954 56 20 56C21.1046 56 22 56.8954 22 58ZM89 59C89 57.8954 88.1046 57 87 57C85.8954 57 85 57.8954 85 59C85 60.1046 85.8954 61 87 61C88.1046 61 89 60.1046 89 59ZM19 49C19 50.1046 18.1046 51 17 51C15.8954 51 15 50.1046 15 49C15 47.8954 15.8954 47 17 47C18.1046 47 19 47.8954 19 49ZM80 62C80 60.8954 79.1046 60 78 60C76.8954 60 76 60.8954 76 62C76 63.1046 76.8954 64 78 64C79.1046 64 80 63.1046 80 62ZM28 53C28 54.1046 27.1046 55 26 55C24.8954 55 24 54.1046 24 53C24 51.8954 24.8954 51 26 51C27.1046 51 28 51.8954 28 53ZM84 53C84 51.8954 83.1046 51 82 51C80.8954 51 80 51.8954 80 53C80 54.1046 80.8954 55 82 55C83.1046 55 84 54.1046 84 53ZM32 62C32 63.1046 31.1046 64 30 64C28.8954 64 28 63.1046 28 62C28 60.8954 28.8954 60 30 60C31.1046 60 32 60.8954 32 62ZM93 49C93 47.8954 92.1046 47 91 47C89.8954 47 89 47.8954 89 49C89 50.1046 89.8954 51 91 51C92.1046 51 93 50.1046 93 49ZM139 43C139 44.6569 137.657 46 136 46C134.343 46 133 44.6569 133 43C133 41.3431 134.343 40 136 40C137.657 40 139 41.3431 139 43ZM131.5 34C132.328 34 133 33.3284 133 32.5C133 31.6716 132.328 31 131.5 31C130.672 31 130 31.6716 130 32.5C130 33.3284 130.672 34 131.5 34ZM143 37C143 38.1046 142.105 39 141 39C139.895 39 139 38.1046 139 37C139 35.8954 139.895 35 141 35C142.105 35 143 35.8954 143 37ZM144.5 47C145.328 47 146 46.3284 146 45.5C146 44.6716 145.328 44 144.5 44C143.672 44 143 44.6716 143 45.5C143 46.3284 143.672 47 144.5 47ZM171.364 50.8492C170.192 52.0208 168.293 52.0208 167.121 50.8492C165.95 49.6777 165.95 47.7782 167.121 46.6066C168.293 45.435 170.192 45.435 171.364 46.6066C172.536 47.7782 172.536 49.6777 171.364 50.8492ZM172.425 39.182C173.01 39.7678 173.96 39.7678 174.546 39.182C175.132 38.5962 175.132 37.6464 174.546 37.0607C173.96 36.4749 173.01 36.4749 172.425 37.0607C171.839 37.6464 171.839 38.5962 172.425 39.182ZM177.871 46.8713C177.343 47.3999 176.486 47.3999 175.957 46.8713C175.429 46.3427 175.429 45.4857 175.957 44.9571C176.486 44.4285 177.343 44.4285 177.871 44.9571C178.4 45.4857 178.4 46.3427 177.871 46.8713ZM176.957 53.8713C177.486 54.3999 178.343 54.3999 178.871 53.8713C179.4 53.3427 179.4 52.4857 178.871 51.9571C178.343 51.4285 177.486 51.4285 176.957 51.9571C176.429 52.4857 176.429 53.3427 176.957 53.8713ZM183.545 41.5447C182.708 42.3814 181.352 42.3814 180.515 41.5447C179.678 40.7081 179.678 39.3516 180.515 38.5149C181.352 37.6782 182.708 37.6782 183.545 38.5149C184.381 39.3516 184.381 40.7081 183.545 41.5447ZM172.425 57.5668C173.01 58.1525 173.96 58.1525 174.546 57.5668C175.132 56.981 175.132 56.0312 174.546 55.4454C173.96 54.8596 173.01 54.8596 172.425 55.4454C171.839 56.0312 171.839 56.981 172.425 57.5668Z" fill="white"/>
</svg>
