<svg width="173" height="69" viewBox="0 0 173 69" fill="none" xmlns="http://www.w3.org/2000/svg">
<path d="M15.8114 63.358L15.8193 63.3623L15.8272 63.3665C19.2859 65.1838 23.2232 66.0807 27.6168 66.0807C30.5288 66.0807 33.3557 65.5853 36.093 64.5952L36.0931 64.5952L36.1027 64.5916C38.9115 63.5383 41.376 61.9843 43.4881 59.9309L43.4881 59.9309L43.4969 59.9222C45.0952 58.3239 46.3523 56.4034 47.2757 54.174C48.218 56.3992 49.4615 58.3166 51.014 59.9134C53.0733 62.0316 55.4907 63.5943 58.2579 64.5952L58.2634 64.5972C61.0554 65.586 63.9366 66.0807 66.9027 66.0807C71.296 66.0807 75.2078 65.1839 78.6135 63.3636L78.6135 63.3637L78.6238 63.358C82.0309 61.4782 84.6789 58.8002 86.5561 55.3411C88.4946 51.8731 89.4472 47.8156 89.4472 43.1991V7.02537V6.14719H88.569H84.4381H83.5599V7.02537V43.5363C83.5599 46.6635 82.8875 49.5312 81.5503 52.1537C80.22 54.7068 78.3082 56.753 75.7994 58.301C73.3173 59.8325 70.3632 60.615 66.9027 60.615C63.4423 60.615 60.4882 59.8325 58.0061 58.301C55.4967 56.7526 53.5549 54.7048 52.168 52.1481C50.8327 49.5271 50.1612 46.6612 50.1612 43.5363V5.09338V4.21521H49.2831H45.2365H44.3583V5.09338V43.5363C44.3583 46.6579 43.6604 49.5213 42.2707 52.1416C40.8836 54.7013 38.9407 56.7513 36.4292 58.301L36.4291 58.3009L36.422 58.3054C34.0001 59.8323 31.0778 60.615 27.6168 60.615C24.0973 60.615 21.1158 59.8312 18.6358 58.301C16.1272 56.7531 14.2155 54.7072 12.8852 52.1543C11.5478 49.5316 10.8753 46.6637 10.8753 43.5363V5.09338V4.21521H9.99714H5.86621H4.98804V5.09338V43.1991C4.98804 47.8135 5.91157 51.869 7.79202 55.3361L7.79195 55.3361L7.79752 55.3461C9.73055 58.8021 12.405 61.4786 15.8114 63.358ZM92.6472 6.1472H91.7691V7.02537V42.9461C91.7691 47.9018 92.8069 52.144 94.9326 55.6277C97.0345 59.0725 99.7924 61.6891 103.203 63.4534C106.589 65.2047 110.212 66.0807 114.061 66.0807C116.973 66.0807 119.774 65.5853 122.458 64.5931L122.466 64.5902L122.474 64.5872C125.164 63.5343 127.565 62.0121 129.67 60.024C131.79 58.0214 133.459 55.5561 134.682 52.644L134.684 52.6383C135.916 49.6472 136.521 46.2423 136.521 42.4403C136.521 37.5969 135.511 33.4157 133.447 29.9367C131.405 26.4945 128.709 23.8509 125.361 22.0287C122.024 20.1565 118.392 19.2214 114.482 19.2214C111.839 19.2214 109.283 19.7212 106.818 20.7187L106.811 20.7216C104.411 21.7169 102.27 23.0948 100.393 24.8538C99.284 25.8917 98.3151 27.0289 97.4877 28.2646V7.02537V6.1472H96.6096H92.6472ZM122.073 58.6976L122.066 58.7014C119.555 60.0903 116.863 60.7836 113.976 60.7836C111.144 60.7836 108.478 60.1178 105.965 58.7822C103.476 57.4038 101.453 55.3876 99.8983 52.7064C98.364 50.061 97.572 46.7657 97.572 42.7775C97.572 38.7321 98.3644 35.4104 99.8968 32.7671C101.511 30.0242 103.564 27.9798 106.052 26.6025C108.624 25.21 111.318 24.5186 114.145 24.5186C117.026 24.5186 119.713 25.2368 122.222 26.6781C124.717 28.1111 126.744 30.1848 128.303 32.9265L128.309 32.9354L128.314 32.9442C129.903 35.5928 130.718 38.8018 130.718 42.6089C130.718 46.5902 129.901 49.912 128.312 52.6146C126.701 55.2976 124.622 57.317 122.073 58.6976ZM141.479 54.0316L141.483 54.0375C143.59 57.3731 146.456 60.0314 150.065 62.0102C153.694 64.0001 157.804 64.9848 162.374 64.9848H167.095H167.973V64.1066V60.5658V59.6876H167.095H161.868C158.641 59.6876 155.701 58.9369 153.03 57.4423C150.343 55.8827 148.172 53.8183 146.507 51.2429C144.916 48.6946 144.115 45.8245 144.115 42.6089C144.115 39.3933 144.916 36.5233 146.507 33.975C148.171 31.4005 150.34 29.366 153.024 27.8632L153.035 27.8565C155.706 26.3073 158.645 25.5302 161.868 25.5302H167.095H167.973V24.652V21.1113V20.2331H167.095H162.374C157.804 20.2331 153.694 21.2177 150.065 23.2076C146.454 25.188 143.587 27.8761 141.481 31.2677C139.364 34.6205 138.312 38.4093 138.312 42.6089C138.312 46.8098 139.365 50.625 141.479 54.0316Z" fill="white" stroke="white" stroke-width="1.75635"/>
<circle cx="7.90355" cy="7.90355" r="7.90355" fill="white"/>
<path d="M100.112 9.78484C100.112 15.1889 95.7868 5.43601 90.4518 5.43601C85.1168 5.43601 80.7919 15.1889 80.7919 9.78484C80.7919 4.38081 85.1168 -1.52588e-05 90.4518 -1.52588e-05C95.7868 -1.52588e-05 100.112 4.38081 100.112 9.78484Z" fill="white"/>
<path d="M105.004 43.5651C107.706 38.8851 106.405 49.3954 110.815 51.9417C115.225 54.488 123.677 48.1059 120.975 52.7859C118.273 57.4659 112.507 59.1957 108.097 56.6494C103.687 54.1032 102.302 48.2451 105.004 43.5651Z" fill="white"/>
<circle cx="137.873" cy="43.0304" r="6.14721" fill="white"/>
<circle cx="47.4213" cy="6.14721" r="6.14721" fill="white"/>
<circle cx="166.853" cy="22.8325" r="6.14721" fill="white"/>
<circle cx="166.853" cy="62.3503" r="6.14721" fill="white"/>
<circle cx="17.5635" cy="51.8122" r="1.75635" fill="white"/>
<circle cx="76.401" cy="52.6903" r="1.75635" transform="rotate(-90 76.401 52.6903)" fill="white"/>
<circle cx="14.929" cy="43.9086" r="1.75635" fill="white"/>
<circle cx="68.4974" cy="55.3248" r="1.75635" transform="rotate(-90 68.4974 55.3248)" fill="white"/>
<circle cx="22.8325" cy="47.4213" r="1.75635" fill="white"/>
<circle cx="72.0101" cy="47.4213" r="1.75635" transform="rotate(-90 72.0101 47.4213)" fill="white"/>
<circle cx="26.3452" cy="55.3248" r="1.75635" fill="white"/>
<circle cx="79.9137" cy="43.9086" r="1.75635" transform="rotate(-90 79.9137 43.9086)" fill="white"/>
<circle cx="115.48" cy="29.4188" r="1.31726" fill="white"/>
<circle cx="123.822" cy="33.3705" r="1.75635" fill="white"/>
<circle cx="126.896" cy="40.835" r="1.31726" fill="white"/>
<circle cx="148.624" cy="43.6697" r="2.63452" transform="rotate(45 148.624 43.6697)" fill="white"/>
<circle cx="152.35" cy="34.3552" r="1.31726" transform="rotate(45 152.35 34.3552)" fill="white"/>
<circle cx="155.361" cy="41.1987" r="1.18864" transform="rotate(45 155.361 41.1987)" fill="white"/>
<circle cx="156.239" cy="47.3459" r="1.18864" transform="rotate(45 156.239 47.3459)" fill="white"/>
<circle cx="159.854" cy="36.0312" r="1.8814" transform="rotate(45 159.854 36.0312)" fill="white"/>
<circle cx="152.35" cy="50.5002" r="1.31726" transform="rotate(45 152.35 50.5002)" fill="white"/>
</svg>
